# xmcd
#
# Track frame offsets: 
#        150
#        40817
#        63671
#        99371
#        137461
#        167816
#        181451
#        211964
#        241142
#        268441
#        298588
#
# Disc length: 4362 seconds
#
# Revision: 1
# Processed by: cddbd v1.5.2PL0 Copyright (c) Steve Scherf et al.
# Submitted via: ExactAudioCopy v0.99pb3
#
DISCID=a311080b
DTITLE=The European Jazz Piano Trio - Artfully
DYEAR=2001
DGENRE=Jazz
TTITLE0=Everthing I Love
TTITLE1=Leibermans
TTITLE2=The Peacocks
TTITLE3=Artfully
TTITLE4=A Bballad and Five Brothers
TTITLE5=Sophie
TTITLE6=Vivi's Waltz
TTITLE7=Tricotism
TTITLE8=Love Rolls On
TTITLE9=I've Got My Love To Keep Me Warm
TTITLE10=The Peacocks
EXTD=
EXTT0=
EXTT1=
EXTT2=
EXTT3=
EXTT4=
EXTT5=
EXTT6=
EXTT7=
EXTT8=
EXTT9=
EXTT10=
PLAYORDER=
